<svg role="img" viewBox="0 0 24 24" xmlns="http://www.w3.org/2000/svg">
  <title>MotherDuck</title>
  <g transform="scale(0.85) translate(0, 2)">
    <path fill="#ff9538"
      d="M1.71 15.86s7.45 5.32 7.89 5.59c.44.27 1.08.33 1.64.11.56-.22.98-.71 1.11-1.21s1.85-9.49 1.85-9.49c.02-.12.07-.48-.13-.83-.27-.47-.86-.71-1.38-.57-.42.12-.64.44-.7.55-.09.17-.26.45-.57.7-.24.19-.47.3-.58.34-.96.38-2.02.06-2.61-.72-.38-.48-1.04-.67-1.64-.43-.6.24-.94.84-.89 1.45.11.98-.44 1.94-1.4 2.32-.51.21-1.06.21-1.54.05-.12-.03-.51-.12-.89.09-.48.26-.74.84-.61 1.37.09.39.38.62.48.69z" />
    <path fill="#ff9538"
      d="M14.12 4.21s2.65 8.76 2.83 9.24c.19.48.66.92 1.23 1.09.58.16 1.21.03 1.62-.28.41-.31 7.25-6.39 7.25-6.39.09-.08.35-.34.4-.74.07-.53-.25-1.09-.75-1.29-.4-.16-.78-.04-.89 0-.18.08-.48.2-.88.2-.3.01-.55-.05-.67-.08-.99-.28-1.64-1.18-1.63-2.16-.01-.61-.42-1.17-1.04-1.35-.62-.18-1.26.09-1.59.6-.51.84-1.53 1.27-2.52.99-.53-.15-.96-.48-1.25-.91-.07-.09-.33-.4-.76-.48-.54-.09-1.1.22-1.32.71-.16.37-.08.72-.04.84z" />
  </g>
</svg>
