<?xml version="1.0" encoding="UTF-8"?>
<!-- Generated by Pixelmator Pro 3.6.17 -->
<svg width="24" height="24" viewBox="0 0 24 24" xmlns="http://www.w3.org/2000/svg">
    <g id="Option2SymbolB">
        <g id="Layer1-2">
            <g id="Group" opacity="0.4">
                <path id="Path" fill="#d53c97" stroke="none" d="M 17.016802 12.188573 C 17.016802 9.607646 15.86018 7.293022 14.039526 5.731081 C 13.942595 5.70038 13.844628 5.671406 13.745972 5.645189 C 13.131133 5.809095 12.54265 6.059378 11.998103 6.388559 C 13.964327 7.575191 15.281006 9.730104 15.281006 12.188573 C 15.279476 14.563734 14.033739 16.764488 11.998103 17.988243 C 12.542634 18.317537 13.131119 18.567936 13.745972 18.731958 C 13.844628 18.705742 13.942595 18.67642 14.039526 18.645721 C 15.86018 17.084126 17.016802 14.769501 17.016802 12.188573 Z"/>
                <path id="path1" fill="#d53c97" stroke="none" d="M 13.897406 5.609659 L 13.894991 5.60759 C 13.844973 5.619663 13.7953 5.631737 13.745972 5.645189 C 13.79599 5.631737 13.847043 5.622078 13.897406 5.609659 Z"/>
                <path id="path2" fill="#d53c97" stroke="none" d="M 1.735796 12.188573 C 1.735796 9.164728 3.728925 6.59622 6.470945 5.729357 C 7.554634 4.797861 8.856011 4.155121 10.254373 3.860756 C 9.680216 3.740549 9.095179 3.679977 8.508574 3.68 C 3.816888 3.68 -0 7.496887 -0 12.188573 C -0 16.880259 3.816888 20.697147 8.508574 20.697147 C 9.0952 20.697229 9.680255 20.636539 10.254373 20.516048 C 8.855971 20.221794 7.554568 19.579041 6.470945 18.647446 C 3.728925 17.780582 1.735796 15.213453 1.735796 12.188573 Z"/>
                <path id="path3" fill="#d53c97" stroke="none" d="M 13.745972 18.731958 C 13.7953 18.745068 13.844973 18.757484 13.894991 18.769558 C 13.894991 18.769558 13.896715 18.769558 13.897406 18.767488 C 13.847043 18.754379 13.79599 18.745411 13.745972 18.731958 Z"/>
            </g>
            <path id="path4" fill="#ff3b65" stroke="none" d="M 20.508402 12.188573 C 20.508402 9.606611 19.351088 7.290262 17.5294 5.729357 C 16.301817 5.342468 14.989366 5.313629 13.745972 5.646223 C 16.636665 6.418224 18.772606 9.058484 18.772606 12.189609 C 18.772606 15.320732 16.636665 17.960991 13.745972 18.731958 C 14.98947 19.064316 16.301983 19.034998 17.5294 18.647446 C 19.419907 17.034296 20.508638 14.673781 20.508402 12.188573 Z"/>
            <path id="path5" fill="#ff3b65" stroke="none" d="M 9.962543 18.647446 C 7.220525 17.780582 5.227395 15.213453 5.227395 12.188573 C 5.227395 9.163693 7.220525 6.59622 9.962543 5.729357 C 11.046233 4.797861 12.34761 4.155121 13.745972 3.860756 C 13.171818 3.74053 12.586779 3.679956 12.000173 3.68 C 7.308832 3.68 3.491599 7.496887 3.491599 12.188573 C 3.491599 16.880259 7.308487 20.697147 12.000173 20.697147 C 12.586799 20.697247 13.171857 20.636557 13.745972 20.516048 C 12.34757 20.221794 11.046167 19.579041 9.962543 18.647446 Z"/>
            <path id="path6" fill="#383838" stroke="none" d="M 15.491772 3.68 C 10.800431 3.68 6.983198 7.496887 6.983198 12.188573 C 6.983198 16.880259 10.800086 20.697147 15.491772 20.697147 C 20.183456 20.697147 24 16.880259 24 12.188573 C 24 7.496887 20.183456 3.68 15.491772 3.68 Z M 22.264549 12.188573 C 22.264549 15.923018 19.226215 18.961351 15.491772 18.961351 C 11.757326 18.961351 8.718994 15.923018 8.718994 12.188573 C 8.718994 8.454128 11.757326 5.415796 15.491772 5.415796 C 19.226215 5.415796 22.264549 8.454128 22.264549 12.188573 Z"/>
        </g>
    </g>
</svg>
